<svg id="Layer_1" data-name="Layer 1" xmlns="http://www.w3.org/2000/svg" viewBox="0 0 150 150"><defs><style>.cls-1{opacity:0.3;}.cls-2{fill:#fff;}</style></defs><title>circle</title><g class="cls-1"><path class="cls-2" d="M75.26,137.87a63.25,63.25,0,1,1,63.25-63.25A63.32,63.32,0,0,1,75.26,137.87Zm0-121.51a58.26,58.26,0,1,0,58.26,58.26A58.33,58.33,0,0,0,75.26,16.36Z"/><path class="cls-2" d="M80.35,147.18a.63.63,0,0,1-.62-.58.64.64,0,0,1,.58-.67,70.88,70.88,0,0,0,7.42-.9.62.62,0,1,1,.22,1.22,73.75,73.75,0,0,1-7.55.93Zm-13.81-.34h-.07c-1.24-.15-2.51-.33-3.77-.55a.62.62,0,1,1,.21-1.23c1.24.21,2.49.4,3.7.54a.62.62,0,0,1,.55.7A.63.63,0,0,1,66.54,146.84Zm25-1.33a.62.62,0,0,1-.14-1.23,70.46,70.46,0,0,0,13-4.35.62.62,0,1,1,.51,1.14,73.25,73.25,0,0,1-13.21,4.43Zm-36.09-.91a.52.52,0,0,1-.17,0,72.2,72.2,0,0,1-13-5.1.63.63,0,0,1-.28-.84.64.64,0,0,1,.84-.27,71.07,71.07,0,0,0,12.75,5,.62.62,0,0,1,.43.77A.63.63,0,0,1,55.45,144.6Zm-16.18-6.85a.68.68,0,0,1-.31-.08,74.26,74.26,0,0,1-6.39-4.15.61.61,0,0,1-.13-.87.62.62,0,0,1,.87-.14,74,74,0,0,0,6.27,4.08.62.62,0,0,1-.31,1.16Zm72.09-.06a.61.61,0,0,1-.54-.31.63.63,0,0,1,.22-.86c1.08-.62,2.15-1.28,3.19-2a.62.62,0,0,1,.68,1c-1,.69-2.14,1.36-3.24,2A.61.61,0,0,1,111.36,137.69Zm14-10.59a.59.59,0,0,1-.44-.19.62.62,0,0,1,0-.88,73.19,73.19,0,0,0,5.1-5.47.62.62,0,0,1,.88-.08.63.63,0,0,1,.08.88,73.87,73.87,0,0,1-5.19,5.56A.62.62,0,0,1,125.37,127.1ZM22.58,124.49a.61.61,0,0,1-.45-.19c-.87-.93-1.72-1.89-2.53-2.85a.62.62,0,0,1,.08-.88.61.61,0,0,1,.87.08c.8.94,1.63,1.88,2.49,2.79a.62.62,0,0,1-.46,1Zm110.29-5.86a.58.58,0,0,1-.37-.13.62.62,0,0,1-.13-.87A71.06,71.06,0,0,0,139.54,106a.62.62,0,0,1,1.12.55,73.5,73.5,0,0,1-7.29,11.88A.63.63,0,0,1,132.87,118.63Zm-117.35-3a.61.61,0,0,1-.51-.28,72.52,72.52,0,0,1-6.68-12.23.62.62,0,0,1,.33-.82.63.63,0,0,1,.82.33,71.43,71.43,0,0,0,6.56,12,.63.63,0,0,1-.52,1ZM7.52,100a.63.63,0,0,1-.59-.41,72.91,72.91,0,0,1-2.24-7.28.62.62,0,0,1,.46-.75.63.63,0,0,1,.76.45A71.07,71.07,0,0,0,8.1,99.19a.63.63,0,0,1-.37.8A.52.52,0,0,1,7.52,100Zm135.53-.13a.76.76,0,0,1-.21,0,.63.63,0,0,1-.38-.8c.43-1.16.83-2.36,1.19-3.56a.63.63,0,0,1,1.2.36c-.38,1.23-.78,2.44-1.21,3.62A.63.63,0,0,1,143.05,99.9ZM147,82.78h-.07a.61.61,0,0,1-.55-.68,74.43,74.43,0,0,0,.38-7.47v-.28a.63.63,0,0,1,1.25,0v.27a74.15,74.15,0,0,1-.39,7.61A.63.63,0,0,1,147,82.78ZM3.25,79.15a.63.63,0,0,1-.63-.59c-.06-1.27-.1-2.55-.1-3.8a.63.63,0,0,1,.62-.63h0a.63.63,0,0,1,.63.63c0,1.23,0,2.49.1,3.74a.62.62,0,0,1-.59.65Zm144-8a.63.63,0,0,1-.63-.59,70.88,70.88,0,0,0-2.06-13.54.62.62,0,0,1,.45-.75.61.61,0,0,1,.76.45,73.31,73.31,0,0,1,2.1,13.77.63.63,0,0,1-.59.66ZM3.52,67.85H3.45a.61.61,0,0,1-.55-.68A72.92,72.92,0,0,1,5.63,53.49a.63.63,0,0,1,1.2.36A71.44,71.44,0,0,0,4.14,67.29.63.63,0,0,1,3.52,67.85Zm3.9-17.14a.52.52,0,0,1-.21,0,.62.62,0,0,1-.37-.8,72.79,72.79,0,0,1,3-7,.62.62,0,1,1,1.12.55A70.71,70.71,0,0,0,8,50.3.63.63,0,0,1,7.42,50.71ZM143,50.33a.63.63,0,0,1-.59-.41c-.43-1.17-.89-2.33-1.38-3.47a.62.62,0,0,1,.33-.82.63.63,0,0,1,.82.33c.49,1.15,1,2.34,1.4,3.53a.63.63,0,0,1-.37.8A.78.78,0,0,1,143,50.33Zm-8-15.62a.63.63,0,0,1-.52-.27,72.89,72.89,0,0,0-4.52-6,.61.61,0,0,1,.07-.87.62.62,0,0,1,.88.07,75.52,75.52,0,0,1,4.61,6.06.63.63,0,0,1-.17.87A.64.64,0,0,1,134.92,34.71ZM17.57,32a.6.6,0,0,1-.38-.13.62.62,0,0,1-.12-.87c.76-1,1.55-2,2.36-3a.64.64,0,0,1,.88-.08.62.62,0,0,1,.08.88c-.79.95-1.58,1.94-2.33,2.94A.63.63,0,0,1,17.57,32Zm110.27-6.08a.62.62,0,0,1-.45-.2,72.57,72.57,0,0,0-10.29-9,.62.62,0,0,1,.73-1,72.77,72.77,0,0,1,10.47,9.21.63.63,0,0,1-.46,1.05ZM25.05,23.48a.6.6,0,0,1-.45-.19.63.63,0,0,1,0-.88A73,73,0,0,1,35.5,13.7a.62.62,0,0,1,.68,1,72.24,72.24,0,0,0-10.7,8.56A.61.61,0,0,1,25.05,23.48Zm14-10.62a.62.62,0,0,1-.32-1.16A74.5,74.5,0,0,1,45.5,8.22a.62.62,0,0,1,.82.32.61.61,0,0,1-.31.82,73.19,73.19,0,0,0-6.65,3.42A.6.6,0,0,1,39.05,12.86Zm72.08-.19a.59.59,0,0,1-.31-.09c-1.08-.62-2.19-1.22-3.3-1.78a.62.62,0,0,1-.27-.83.63.63,0,0,1,.84-.28c1.12.57,2.25,1.18,3.35,1.81a.62.62,0,0,1,.23.85A.64.64,0,0,1,111.13,12.67ZM94.94,5.84a.47.47,0,0,1-.17,0,73.35,73.35,0,0,0-7.3-1.66A.62.62,0,0,1,87,3.44a.63.63,0,0,1,.72-.51A72.4,72.4,0,0,1,95.1,4.62a.62.62,0,0,1-.16,1.22ZM58.85,5a.62.62,0,0,1-.15-1.23c1.23-.29,2.49-.54,3.73-.77a.65.65,0,0,1,.73.51.62.62,0,0,1-.51.72C61.43,4.45,60.2,4.7,59,5Zm25-1.37h-.07a72,72,0,0,0-13.7-.32A.62.62,0,0,1,70,2.07a73.75,73.75,0,0,1,13.94.32.62.62,0,0,1-.08,1.24Z"/><path class="cls-2" d="M80.06,142.93a.63.63,0,0,1-.63-.58.64.64,0,0,1,.58-.67,67.51,67.51,0,0,0,7-.85.63.63,0,0,1,.73.51.62.62,0,0,1-.51.72,70.4,70.4,0,0,1-7.11.87Zm-13-.32H67c-1.17-.14-2.37-.31-3.55-.52a.63.63,0,0,1-.51-.72.62.62,0,0,1,.72-.51c1.17.2,2.34.38,3.49.52a.62.62,0,0,1-.08,1.24Zm23.52-1.25a.61.61,0,0,1-.6-.48.62.62,0,0,1,.46-.75,66.9,66.9,0,0,0,12.21-4.1.63.63,0,0,1,.83.32.62.62,0,0,1-.32.82,67.12,67.12,0,0,1-12.44,4.17A.32.32,0,0,1,90.58,141.36Zm-33.95-.85a.51.51,0,0,1-.17,0,67.82,67.82,0,0,1-12.22-4.79.63.63,0,0,1,.57-1.12,66.35,66.35,0,0,0,12,4.71.63.63,0,0,1-.17,1.23ZM41.4,134.06a.71.71,0,0,1-.31-.08,70.17,70.17,0,0,1-6-3.9.63.63,0,0,1-.14-.87.62.62,0,0,1,.87-.14,67.81,67.81,0,0,0,5.91,3.83.62.62,0,0,1,.22.85A.61.61,0,0,1,41.4,134.06Zm67.83-.06a.63.63,0,0,1-.31-1.17c1-.57,2-1.19,3-1.84a.63.63,0,0,1,.86.19.62.62,0,0,1-.18.86c-1,.66-2,1.29-3,1.87A.61.61,0,0,1,109.23,134Zm13.18-10A.63.63,0,0,1,122,123a68.52,68.52,0,0,0,4.8-5.14.62.62,0,1,1,1,.8,68.94,68.94,0,0,1-4.88,5.24A.62.62,0,0,1,122.41,124ZM25.7,121.59a.65.65,0,0,1-.46-.2c-.8-.86-1.6-1.76-2.37-2.68a.61.61,0,0,1,.07-.87.63.63,0,0,1,.88.07c.76.9,1.54,1.78,2.34,2.63a.63.63,0,0,1,0,.88A.65.65,0,0,1,25.7,121.59Zm103.77-5.53a.68.68,0,0,1-.38-.12.63.63,0,0,1-.12-.88,67.24,67.24,0,0,0,6.74-11,.62.62,0,0,1,1.12.55A69.25,69.25,0,0,1,130,115.81.62.62,0,0,1,129.47,116.06ZM19.06,113.27a.62.62,0,0,1-.52-.27,68.81,68.81,0,0,1-6.29-11.52.64.64,0,0,1,.33-.82.63.63,0,0,1,.82.33,66.36,66.36,0,0,0,6.18,11.31.62.62,0,0,1-.52,1Zm-7.54-14.7a.62.62,0,0,1-.58-.41,68.55,68.55,0,0,1-2.11-6.85.62.62,0,0,1,.46-.75A.61.61,0,0,1,10,91a66.76,66.76,0,0,0,2.07,6.72.62.62,0,0,1-.37.8A.57.57,0,0,1,11.52,98.57ZM139,98.45a.78.78,0,0,1-.21,0,.63.63,0,0,1-.37-.8c.4-1.1.77-2.22,1.12-3.34a.62.62,0,0,1,.77-.42.63.63,0,0,1,.42.78c-.35,1.14-.73,2.29-1.14,3.41A.63.63,0,0,1,139,98.45Zm3.71-16.12h-.06a.63.63,0,0,1-.56-.69,68.47,68.47,0,0,0,.36-7v-.28a.63.63,0,0,1,1.25,0v.28a68.2,68.2,0,0,1-.37,7.15A.62.62,0,0,1,142.75,82.33ZM7.51,78.93a.63.63,0,0,1-.63-.59c-.06-1.19-.09-2.39-.1-3.58a.63.63,0,0,1,.63-.63h0a.63.63,0,0,1,.62.63c0,1.16,0,2.35.1,3.51a.63.63,0,0,1-.59.66ZM143,71.41a.62.62,0,0,1-.62-.59,67.41,67.41,0,0,0-1.94-12.73.62.62,0,0,1,.45-.76.63.63,0,0,1,.76.46,68.88,68.88,0,0,1,2,13,.62.62,0,0,1-.59.65ZM7.76,68.29H7.69a.62.62,0,0,1-.55-.69A68.3,68.3,0,0,1,9.71,54.74a.63.63,0,1,1,1.2.36A66,66,0,0,0,8.38,67.73.63.63,0,0,1,7.76,68.29Zm3.67-16.12a.52.52,0,0,1-.21,0,.63.63,0,0,1-.38-.8,68.29,68.29,0,0,1,2.79-6.6.62.62,0,0,1,.83-.29.63.63,0,0,1,.29.84A65.77,65.77,0,0,0,12,51.76.65.65,0,0,1,11.43,52.17ZM139,51.78a.61.61,0,0,1-.58-.41c-.41-1.1-.85-2.19-1.3-3.26a.62.62,0,1,1,1.14-.49c.47,1.08.91,2.2,1.33,3.32a.63.63,0,0,1-.37.8A.57.57,0,0,1,139,51.78Zm-7.57-14.69a.61.61,0,0,1-.51-.27,68.23,68.23,0,0,0-4.26-5.6.62.62,0,1,1,1-.8,68.89,68.89,0,0,1,4.33,5.7.62.62,0,0,1-.16.86A.59.59,0,0,1,131.38,37.09ZM21,34.53a.68.68,0,0,1-.38-.12.63.63,0,0,1-.12-.88c.71-1,1.46-1.89,2.23-2.81a.62.62,0,1,1,.95.8c-.75.9-1.48,1.83-2.18,2.76A.63.63,0,0,1,21,34.53Zm103.76-5.74a.63.63,0,0,1-.46-.19,66.82,66.82,0,0,0-9.67-8.51.62.62,0,0,1,.73-1,68.72,68.72,0,0,1,9.85,8.66.61.61,0,0,1,0,.88A.58.58,0,0,1,124.73,28.79ZM28,26.55a.63.63,0,0,1-.44-1.08,69.28,69.28,0,0,1,10.25-8.2.62.62,0,0,1,.86.18.63.63,0,0,1-.18.87,67.77,67.77,0,0,0-10.06,8.05A.61.61,0,0,1,28,26.55Zm13.16-10a.63.63,0,0,1-.31-1.17,70.77,70.77,0,0,1,6.37-3.27.64.64,0,0,1,.83.31.63.63,0,0,1-.32.83,68.15,68.15,0,0,0-6.25,3.21A.62.62,0,0,1,41.17,16.56ZM109,16.35a.58.58,0,0,1-.31-.08c-1-.58-2.06-1.15-3.1-1.67a.63.63,0,0,1,.56-1.12c1.06.54,2.12,1.11,3.16,1.71a.62.62,0,0,1,.23.85A.63.63,0,0,1,109,16.35ZM93.76,9.94l-.17,0a66.75,66.75,0,0,0-6.86-1.56.62.62,0,0,1,.21-1.23,69.26,69.26,0,0,1,7,1.58.63.63,0,0,1-.17,1.23Zm-34-.79a.61.61,0,0,1-.6-.48.63.63,0,0,1,.46-.75c1.17-.27,2.35-.51,3.51-.72a.62.62,0,1,1,.22,1.23c-1.14.2-2.3.44-3.44.71ZM83.32,7.86h-.07a68.42,68.42,0,0,0-12.88-.29.62.62,0,1,1-.09-1.24,69.26,69.26,0,0,1,13.12.3.62.62,0,0,1-.08,1.24Z"/></g></svg>