<svg id="Layer_1" data-name="Layer 1" xmlns="http://www.w3.org/2000/svg" viewBox="0 0 150 150"><defs><style>.cls-1{opacity:0.3;}.cls-2{fill:#fff;}</style></defs><title>free</title><g class="cls-1"><path class="cls-2" d="M124.68,136.36H17.6L12.19,54.72c-.36-1.51.29-1.85,4.13-3.92l8-4.23c6.58-3.5,15.36-8.14,24.14-12.78L83.52,15.26,85,14.5l53.13,54.93ZM21.69,132H121.1l12.27-61.19L84.1,19.88C65.73,29.57,24,51.59,16.62,55.6Z"/></g><g class="cls-1"><path class="cls-2" d="M8.88,61.63a.54.54,0,0,1-.54-.51l-.6-8.94c-.12-.36-.12-.36,8.1-4.88a.54.54,0,0,1,.74.22.54.54,0,0,1-.21.74c-5.14,2.83-6.93,3.84-7.51,4.17l.57,8.62a.55.55,0,0,1-.51.58Z"/><path class="cls-2" d="M20.67,45.82a.55.55,0,0,1-.48-.29.54.54,0,0,1,.2-.74l1.84-1A.53.53,0,0,1,23,44a.55.55,0,0,1-.21.75l-1.82,1A.68.68,0,0,1,20.67,45.82Zm9.18-5a.54.54,0,0,1-.48-.28.55.55,0,0,1,.21-.75l8.28-4.53a.55.55,0,0,1,.52,1l-8.27,4.53A.58.58,0,0,1,29.85,40.78Z"/><path class="cls-2" d="M41.64,34.33a.53.53,0,0,1-.48-.29.54.54,0,0,1,.21-.74l11-6a.55.55,0,1,1,.53,1l-11,6A.48.48,0,0,1,41.64,34.33Zm15.64-8.55a.54.54,0,0,1-.48-.28.55.55,0,0,1,.21-.75l1.85-1a.55.55,0,0,1,.52,1l-1.84,1A.58.58,0,0,1,57.28,25.78Zm9.2-5a.53.53,0,0,1-.48-.29.54.54,0,0,1,.22-.74l8.28-4.52a.55.55,0,0,1,.74.22.54.54,0,0,1-.22.74l-8.28,4.52A.48.48,0,0,1,66.48,20.76Z"/><path class="cls-2" d="M92.15,16.63a.55.55,0,0,1-.4-.18l-5.83-6.22-7.48,4.08a.55.55,0,1,1-.53-1l7.86-4.29a.53.53,0,0,1,.66.11l6.12,6.53a.55.55,0,0,1-.4.93Z"/><path class="cls-2" d="M107.74,33.28a.58.58,0,0,1-.4-.17l-5.85-6.26a.54.54,0,0,1,0-.77.55.55,0,0,1,.78,0l5.85,6.26a.54.54,0,0,1,0,.77A.55.55,0,0,1,107.74,33.28ZM96.68,21.47a.55.55,0,0,1-.4-.18L95,19.9a.55.55,0,0,1,0-.77.53.53,0,0,1,.77,0l1.3,1.39a.54.54,0,0,1,0,.77A.55.55,0,0,1,96.68,21.47Z"/><path class="cls-2" d="M133.66,61a.56.56,0,0,1-.4-.17l-5.86-6.25a.55.55,0,1,1,.81-.75L134.06,60a.53.53,0,0,1,0,.77A.51.51,0,0,1,133.66,61ZM122.6,49.15a.58.58,0,0,1-.4-.17l-1.3-1.39a.55.55,0,0,1,0-.78.56.56,0,0,1,.78,0l1.3,1.39a.54.54,0,0,1,0,.77A.55.55,0,0,1,122.6,49.15Zm-4.55-4.86a.53.53,0,0,1-.4-.18l-7.81-8.34a.54.54,0,1,1,.8-.74l7.81,8.33a.56.56,0,0,1,0,.78A.53.53,0,0,1,118.05,44.29Z"/><path class="cls-2" d="M140.44,78.87h-.1a.54.54,0,0,1-.43-.64l1.7-8.51-5.93-6.34a.54.54,0,0,1,0-.77.53.53,0,0,1,.77,0l6.12,6.53a.55.55,0,0,1,.14.49L141,78.43A.55.55,0,0,1,140.44,78.87Z"/><path class="cls-2" d="M136.67,97.74h-.11a.55.55,0,0,1-.43-.65L137.55,90a.55.55,0,0,1,1.07.21l-1.41,7.09A.56.56,0,0,1,136.67,97.74Zm2.68-13.38h-.11a.55.55,0,0,1-.43-.65l.31-1.57a.55.55,0,0,1,1.08.21l-.32,1.58A.54.54,0,0,1,139.35,84.36Z"/><path class="cls-2" d="M130.39,129.11h-.11a.55.55,0,0,1-.43-.65l1.42-7.08a.55.55,0,0,1,1.07.21l-1.41,7.09A.55.55,0,0,1,130.39,129.11Zm2.68-13.38H133a.55.55,0,0,1-.43-.65l.31-1.57a.55.55,0,0,1,.65-.43.54.54,0,0,1,.43.64l-.31,1.58A.56.56,0,0,1,133.07,115.73Zm1.1-5.51h-.11a.55.55,0,0,1-.43-.65l1.89-9.44a.54.54,0,0,1,.65-.43.53.53,0,0,1,.43.64l-1.89,9.45A.55.55,0,0,1,134.17,110.22Z"/><path class="cls-2" d="M128,140.84h-8.95a.55.55,0,0,1-.55-.55.55.55,0,0,1,.55-.55h8.5l1.67-8.34a.55.55,0,0,1,1.08.21l-1.76,8.79A.55.55,0,0,1,128,140.84Z"/><path class="cls-2" d="M112,140.84h-2.84a.54.54,0,0,1-.55-.55.55.55,0,0,1,.55-.55H112a.55.55,0,0,1,.55.55A.55.55,0,0,1,112,140.84Zm-14.23,0H85a.55.55,0,0,1-.55-.55.55.55,0,0,1,.55-.55H97.8a.55.55,0,0,1,.55.55A.54.54,0,0,1,97.8,140.84Z"/><path class="cls-2" d="M79.56,140.84H62.49a.54.54,0,0,1-.55-.55.55.55,0,0,1,.55-.55H79.56a.55.55,0,0,1,.55.55A.55.55,0,0,1,79.56,140.84Zm-24.19,0H52.53a.55.55,0,0,1-.55-.55.55.55,0,0,1,.55-.55h2.84a.55.55,0,0,1,.55.55A.54.54,0,0,1,55.37,140.84Zm-14.22,0H28.34a.54.54,0,0,1-.54-.55.55.55,0,0,1,.54-.55H41.15a.55.55,0,0,1,.55.55A.55.55,0,0,1,41.15,140.84Z"/><path class="cls-2" d="M23.08,140.84H14.13a.53.53,0,0,1-.54-.51l-.6-8.94a.56.56,0,0,1,.51-.59.55.55,0,0,1,.59.52l.56,8.42h8.43a.55.55,0,0,1,.55.55A.54.54,0,0,1,23.08,140.84Z"/><path class="cls-2" d="M13.2,126.73a.55.55,0,0,1-.55-.51l-.14-2.08a.55.55,0,0,1,.51-.58.52.52,0,0,1,.59.51l.13,2.08a.54.54,0,0,1-.51.58Zm-.69-10.4a.55.55,0,0,1-.55-.51l-.62-9.36a.55.55,0,0,1,1.1-.07l.62,9.36a.55.55,0,0,1-.51.58Z"/><path class="cls-2" d="M11.62,103a.55.55,0,0,1-.54-.52L10.25,90a.55.55,0,0,1,1.09-.07l.83,12.48a.55.55,0,0,1-.51.58ZM10.45,85.28a.55.55,0,0,1-.55-.51l-.13-2.08a.53.53,0,0,1,.51-.58.54.54,0,0,1,.58.51L11,84.7a.55.55,0,0,1-.51.58Zm-.69-10.4a.55.55,0,0,1-.55-.51L8.59,65a.55.55,0,0,1,.51-.58.54.54,0,0,1,.59.51l.62,9.36a.55.55,0,0,1-.51.58Z"/></g><g class="cls-1"><path class="cls-2" d="M3.45,60.16a.55.55,0,0,1-.55-.51L2.26,50c-.12-.36-.12-.36,8.74-5.21a.54.54,0,0,1,.74.21.55.55,0,0,1-.21.75c-4.61,2.52-7.34,4-8.15,4.5L4,59.58a.55.55,0,0,1-.51.58Z"/><path class="cls-2" d="M16.19,43.16a.54.54,0,0,1-.48-.28.55.55,0,0,1,.21-.75l1.84-1a.55.55,0,0,1,.75.22.55.55,0,0,1-.22.74l-1.84,1A.58.58,0,0,1,16.19,43.16Zm9.2-5a.56.56,0,0,1-.48-.29.53.53,0,0,1,.22-.74l8.28-4.51a.55.55,0,0,1,.75.22.55.55,0,0,1-.22.74l-8.29,4.51A.48.48,0,0,1,25.39,38.15Z"/><path class="cls-2" d="M38.89,30.81a.56.56,0,0,1-.49-.29.55.55,0,0,1,.22-.74l11.06-6a.55.55,0,0,1,.52,1l-11.05,6A.68.68,0,0,1,38.89,30.81ZM54.55,22.3a.55.55,0,0,1-.26-1l1.84-1a.55.55,0,1,1,.52,1l-1.84,1A.54.54,0,0,1,54.55,22.3Zm9.21-5a.56.56,0,0,1-.48-.29.53.53,0,0,1,.22-.74l8.29-4.5a.55.55,0,1,1,.53,1L64,17.23A.48.48,0,0,1,63.76,17.3ZM76,10.72l-.52-1,.67-.36a.55.55,0,1,1,.51,1Zm-.28-.47h0Z"/><path class="cls-2" d="M93.54,11.77a.53.53,0,0,1-.4-.18L86.8,4.87,78.68,9.28a.56.56,0,0,1-.75-.22.57.57,0,0,1,.22-.75l8.5-4.6a.55.55,0,0,1,.66.1l6.63,7a.54.54,0,0,1,0,.78A.53.53,0,0,1,93.54,11.77Z"/><path class="cls-2" d="M109.43,28.64a.58.58,0,0,1-.4-.17l-5.87-6.24a.54.54,0,0,1,0-.77.55.55,0,0,1,.78,0l5.87,6.24a.54.54,0,0,1,0,.77A.55.55,0,0,1,109.43,28.64ZM98.34,16.86a.52.52,0,0,1-.4-.17l-1.31-1.38a.55.55,0,0,1,0-.78.54.54,0,0,1,.77,0l1.31,1.39a.54.54,0,0,1,0,.77A.53.53,0,0,1,98.34,16.86Z"/><path class="cls-2" d="M139.67,60.74a.54.54,0,0,1-.4-.17l-.46-.48a.54.54,0,0,1,0-.78.55.55,0,0,1,.77,0l.45.48a.54.54,0,0,1,0,.77A.53.53,0,0,1,139.67,60.74Zm-3.07-3.25a.58.58,0,0,1-.4-.17l-5.87-6.24a.54.54,0,0,1,0-.77.55.55,0,0,1,.78,0L137,56.57a.54.54,0,0,1,0,.77A.55.55,0,0,1,136.6,57.49ZM125.51,45.71a.54.54,0,0,1-.4-.17l-1.31-1.39a.53.53,0,0,1,0-.77.54.54,0,0,1,.77,0l1.31,1.38a.56.56,0,0,1,0,.78A.53.53,0,0,1,125.51,45.71Zm-4.57-4.85a.56.56,0,0,1-.4-.17l-7.83-8.32a.54.54,0,0,1,0-.77.55.55,0,0,1,.78,0l7.83,8.32a.55.55,0,0,1-.4.92Z"/><path class="cls-2" d="M145.78,78.71l-.11,0a.53.53,0,0,1-.42-.64l1.84-9.17-6.43-6.83a.55.55,0,0,1,0-.77.54.54,0,0,1,.77,0l6.62,7a.52.52,0,0,1,.14.49l-1.9,9.45A.55.55,0,0,1,145.78,78.71Z"/><path class="cls-2" d="M141.93,97.86h-.11a.54.54,0,0,1-.43-.64l1.42-7.09a.55.55,0,0,1,.65-.42.53.53,0,0,1,.43.64l-1.43,7.08A.54.54,0,0,1,141.93,97.86Zm2.69-13.38h-.11a.54.54,0,0,1-.43-.64l.32-1.58a.55.55,0,0,1,1.07.22L145.16,84A.55.55,0,0,1,144.62,84.48Z"/><path class="cls-2" d="M134.61,134.22h-.11a.55.55,0,0,1-.43-.65l.1-.48a.53.53,0,0,1,.64-.43.55.55,0,0,1,.43.65l-.1.48A.54.54,0,0,1,134.61,134.22Zm.73-3.63h-.11a.55.55,0,0,1-.43-.65l1.42-7.08a.55.55,0,0,1,1.08.21l-1.43,7.09A.54.54,0,0,1,135.34,130.59ZM138,117.21h-.11a.55.55,0,0,1-.43-.65l.32-1.57a.55.55,0,1,1,1.07.21l-.31,1.58A.55.55,0,0,1,138,117.21Zm1.11-5.51H139a.55.55,0,0,1-.43-.65l1.9-9.44a.55.55,0,0,1,1.08.22l-1.9,9.44A.55.55,0,0,1,139.14,111.7Z"/><path class="cls-2" d="M132.36,145.35h-9.68a.55.55,0,1,1,0-1.1h9.24l1.81-9a.55.55,0,1,1,1.07.22l-1.9,9.45A.55.55,0,0,1,132.36,145.35Z"/><path class="cls-2" d="M115,145.35H112.2a.55.55,0,0,1,0-1.1H115a.55.55,0,0,1,0,1.1Zm-14.22,0H88a.55.55,0,0,1,0-1.1h12.81a.55.55,0,1,1,0,1.1Z"/><path class="cls-2" d="M79.91,145.35H62.84a.55.55,0,0,1,0-1.1H79.91a.55.55,0,0,1,0,1.1Zm-24.18,0H52.88a.55.55,0,0,1,0-1.1h2.85a.55.55,0,0,1,0,1.1Zm-14.23,0H28.7a.55.55,0,1,1,0-1.1H41.5a.55.55,0,1,1,0,1.1Zm-18.49,0H21.87a.55.55,0,1,1,0-1.1H23a.55.55,0,1,1,0,1.1Z"/><path class="cls-2" d="M18.81,145.35H9.13a.56.56,0,0,1-.55-.51l-.64-9.62a.55.55,0,0,1,.51-.58.53.53,0,0,1,.58.51l.61,9.1h9.17a.55.55,0,1,1,0,1.1Z"/><path class="cls-2" d="M8.12,130.18a.56.56,0,0,1-.55-.52l-.14-2.08a.55.55,0,0,1,.51-.58.53.53,0,0,1,.59.51l.13,2.08a.56.56,0,0,1-.51.59Zm-.7-10.4a.55.55,0,0,1-.54-.52l-.63-9.36a.55.55,0,0,1,1.1-.07L8,119.19a.55.55,0,0,1-.51.58Z"/><path class="cls-2" d="M6.41,104.62a.55.55,0,0,1-.54-.52L5,91.62A.55.55,0,0,1,5.54,91a.54.54,0,0,1,.59.51L7,104a.55.55,0,0,1-.51.58ZM5.23,86.93a.55.55,0,0,1-.54-.51l-.14-2.08a.55.55,0,0,1,.51-.58.53.53,0,0,1,.58.51l.14,2.08a.55.55,0,0,1-.51.58ZM4.54,76.54A.56.56,0,0,1,4,76l-.62-9.36a.55.55,0,0,1,1.09-.07L5.09,76a.55.55,0,0,1-.51.58ZM3.64,63a.55.55,0,0,1-.55-.51l0-.63a.55.55,0,0,1,.51-.58.54.54,0,0,1,.58.51l.05.63a.55.55,0,0,1-.52.58Z"/></g></svg>