<svg id="Layer_1" data-name="Layer 1" xmlns="http://www.w3.org/2000/svg" viewBox="0 0 150 150"><defs><style>.cls-1{opacity:0.3;}.cls-2{fill:#fff;}</style></defs><title>polygon</title><g class="cls-1"><path class="cls-2" d="M75.1,139l-45-18.66-18.66-45,18.66-45L75.1,11.56l45,18.66,18.67,45.05-18.67,45.05ZM33.75,116.62,75.1,133.74l41.35-17.12,17.12-41.35L116.45,33.92,75.1,16.8,33.75,33.92,16.63,75.27Z"/><path class="cls-2" d="M123,128.54a.59.59,0,0,1-.55-.38.6.6,0,0,1,.32-.79l3.12-1.29L127.2,123a.61.61,0,0,1,1.12.47l-1.39,3.35a.62.62,0,0,1-.32.32l-3.35,1.39A.69.69,0,0,1,123,128.54Z"/><path class="cls-2" d="M82.87,145.17a.6.6,0,0,1-.23-1.16l14.25-5.9a.6.6,0,0,1,.79.32.61.61,0,0,1-.33.79l-14.25,5.9A.59.59,0,0,1,82.87,145.17Zm22-9.12a.61.61,0,0,1-.56-.37.6.6,0,0,1,.33-.79l3.89-1.61a.59.59,0,0,1,.78.32.6.6,0,0,1-.32.79L105.12,136A.59.59,0,0,1,104.89,136.05Z"/><path class="cls-2" d="M75.1,148.39a.59.59,0,0,1-.23,0L71,146.73a.6.6,0,0,1-.32-.79.6.6,0,0,1,.79-.32l3.65,1.51,3.65-1.51a.6.6,0,1,1,.47,1.11l-3.89,1.61A.59.59,0,0,1,75.1,148.39ZM57,140.88a.59.59,0,0,1-.23,0l-3.89-1.61a.6.6,0,1,1,.46-1.11l3.89,1.61a.61.61,0,0,1-.23,1.16Zm-11.66-4.83a.59.59,0,0,1-.23-.05l-14.25-5.9a.61.61,0,1,1,.46-1.12l14.25,5.91a.6.6,0,0,1-.23,1.16Z"/><path class="cls-2" d="M27.17,128.54a.68.68,0,0,1-.23,0l-3.35-1.39a.64.64,0,0,1-.33-.32l-1.38-3.35A.6.6,0,0,1,23,123l1.3,3.12,3.11,1.29a.61.61,0,0,1-.23,1.17Z"/><path class="cls-2" d="M16.53,109.55a.59.59,0,0,1-.55-.37l-1.61-3.89a.6.6,0,1,1,1.11-.46l1.61,3.89a.61.61,0,0,1-.32.79A.67.67,0,0,1,16.53,109.55ZM11.71,97.89a.6.6,0,0,1-.56-.37L5.25,83.27a.6.6,0,1,1,1.11-.46l5.9,14.25a.61.61,0,0,1-.32.79A.66.66,0,0,1,11.71,97.89Z"/><path class="cls-2" d="M4.19,79.76a.59.59,0,0,1-.55-.37L2,75.5A.61.61,0,0,1,2,75l1.61-3.89a.61.61,0,0,1,.79-.33.6.6,0,0,1,.32.79L3.24,75.27l1.51,3.65a.6.6,0,0,1-.32.79A.69.69,0,0,1,4.19,79.76Zm5.91-22a.59.59,0,0,1-.23-.05.6.6,0,0,1-.33-.79L11.15,53a.6.6,0,1,1,1.11.46l-1.61,3.89A.59.59,0,0,1,10.1,57.74Zm4.83-11.66a.67.67,0,0,1-.24,0,.61.61,0,0,1-.32-.79L20.27,31a.6.6,0,0,1,.79-.33.61.61,0,0,1,.33.79L15.48,45.71A.59.59,0,0,1,14.93,46.08Z"/><path class="cls-2" d="M22.44,28a.69.69,0,0,1-.24-.05.6.6,0,0,1-.32-.79l1.38-3.35a.64.64,0,0,1,.33-.32l3.35-1.39a.6.6,0,0,1,.79.33.59.59,0,0,1-.33.78l-3.11,1.3L23,27.58A.59.59,0,0,1,22.44,28Z"/><path class="cls-2" d="M41.42,17.31a.6.6,0,0,1-.23-1.16l3.89-1.61a.6.6,0,1,1,.46,1.11l-3.89,1.61A.59.59,0,0,1,41.42,17.31Zm11.66-4.83a.61.61,0,0,1-.56-.37.6.6,0,0,1,.33-.79L67.1,5.42a.6.6,0,1,1,.46,1.11l-14.25,5.9A.46.46,0,0,1,53.08,12.48Z"/><path class="cls-2" d="M119.14,21.6a.46.46,0,0,1-.23-.05l-14.25-5.9a.6.6,0,1,1,.46-1.11l14.25,5.9a.6.6,0,0,1-.23,1.16Zm-22-9.12a.46.46,0,0,1-.23-.05L93,10.83a.62.62,0,0,1-.33-.79.61.61,0,0,1,.79-.33l3.89,1.61a.6.6,0,0,1-.23,1.16ZM79,5a.69.69,0,0,1-.24,0L75.1,3.41,71.45,4.92a.6.6,0,0,1-.79-.32A.6.6,0,0,1,71,3.81L74.87,2.2a.53.53,0,0,1,.46,0l3.89,1.61A.6.6,0,0,1,79,5Z"/><path class="cls-2" d="M127.76,28a.61.61,0,0,1-.56-.37l-1.29-3.12-3.12-1.3a.59.59,0,0,1-.32-.78.6.6,0,0,1,.79-.33l3.35,1.39a.62.62,0,0,1,.32.32l1.39,3.35a.6.6,0,0,1-.33.79A.59.59,0,0,1,127.76,28Z"/><path class="cls-2" d="M144.39,68.1a.59.59,0,0,1-.55-.37l-5.91-14.25a.61.61,0,0,1,.33-.79.6.6,0,0,1,.79.33L145,67.27a.61.61,0,0,1-.32.79A.67.67,0,0,1,144.39,68.1Zm-9.12-22a.59.59,0,0,1-.55-.37l-1.61-3.89a.6.6,0,1,1,1.11-.46l1.61,3.89a.61.61,0,0,1-.32.79A.67.67,0,0,1,135.27,46.08Z"/><path class="cls-2" d="M129.37,119.91a.62.62,0,0,1-.23,0,.61.61,0,0,1-.33-.79l5.91-14.25a.6.6,0,0,1,.79-.33.61.61,0,0,1,.32.79l-5.9,14.25A.61.61,0,0,1,129.37,119.91Zm9.12-22a.66.66,0,0,1-.23,0,.61.61,0,0,1-.33-.79l1.61-3.89a.6.6,0,0,1,.79-.32.59.59,0,0,1,.33.78l-1.61,3.89A.61.61,0,0,1,138.49,97.89ZM146,79.76a.5.5,0,0,1-.23-.05.6.6,0,0,1-.32-.79L147,75.27l-1.51-3.65a.6.6,0,1,1,1.11-.47L148.17,75a.61.61,0,0,1,0,.46l-1.61,3.89A.6.6,0,0,1,146,79.76Z"/><path class="cls-2" d="M141.94,79.22a.62.62,0,0,1-.23,0,.61.61,0,0,1-.33-.79l1.3-3.12-1.3-3.12a.61.61,0,0,1,.33-.79.6.6,0,0,1,.79.33L143.89,75a.61.61,0,0,1,0,.46l-1.39,3.35A.61.61,0,0,1,141.94,79.22Z"/><path class="cls-2" d="M126.36,116.84a.64.64,0,0,1-.23,0,.61.61,0,0,1-.33-.79l5.53-13.34a.6.6,0,0,1,.79-.33.61.61,0,0,1,.33.79l-5.53,13.35A.61.61,0,0,1,126.36,116.84Zm8.54-20.63a.66.66,0,0,1-.23,0,.61.61,0,0,1-.32-.79l1.5-3.64a.61.61,0,0,1,1.12.46l-1.51,3.64A.6.6,0,0,1,134.9,96.21Z"/><path class="cls-2" d="M82.09,141.21a.61.61,0,0,1-.56-.37.6.6,0,0,1,.33-.79l13.35-5.53a.6.6,0,1,1,.46,1.11l-13.35,5.53A.59.59,0,0,1,82.09,141.21Zm20.63-8.55a.6.6,0,0,1-.23-1.16l3.64-1.51a.61.61,0,0,1,.46,1.12L103,132.62A.62.62,0,0,1,102.72,132.66Zm17-7a.59.59,0,0,1-.55-.38.61.61,0,0,1,.32-.79l3.41-1.41,1.42-3.41a.59.59,0,0,1,.78-.32.6.6,0,0,1,.33.79l-1.51,3.64a.62.62,0,0,1-.32.32l-3.64,1.51A.69.69,0,0,1,119.7,125.63Z"/><path class="cls-2" d="M75.1,144.1a.59.59,0,0,1-.23,0l-3.35-1.39a.61.61,0,1,1,.46-1.12l3.12,1.3,3.12-1.3a.61.61,0,0,1,.79.33.6.6,0,0,1-.33.79l-3.35,1.39A.59.59,0,0,1,75.1,144.1Z"/><path class="cls-2" d="M58.4,137.19a.68.68,0,0,1-.23-.05l-3.64-1.51a.6.6,0,1,1,.46-1.11L58.63,136a.59.59,0,0,1,.33.78A.6.6,0,0,1,58.4,137.19Zm-10.92-4.53a.59.59,0,0,1-.23,0L33.9,127.09a.61.61,0,0,1,.47-1.12l13.34,5.53a.6.6,0,0,1-.23,1.16Z"/><path class="cls-2" d="M30.49,125.63a.68.68,0,0,1-.23,0l-3.64-1.51a.59.59,0,0,1-.32-.32l-1.51-3.64a.6.6,0,0,1,1.11-.47l1.42,3.41,3.4,1.41a.61.61,0,0,1,.33.79A.59.59,0,0,1,30.49,125.63Zm-10.67-18.5a.61.61,0,0,1-.56-.37l-1.51-3.64a.61.61,0,0,1,1.12-.46l1.51,3.64a.62.62,0,0,1-.33.79A.66.66,0,0,1,19.82,107.13ZM15.29,96.21a.59.59,0,0,1-.55-.37L9.21,82.49a.61.61,0,0,1,.32-.79.6.6,0,0,1,.79.33l5.53,13.35a.61.61,0,0,1-.32.79A.67.67,0,0,1,15.29,96.21Z"/><path class="cls-2" d="M8.26,79.22a.6.6,0,0,1-.56-.37L6.31,75.5a.61.61,0,0,1,0-.46L7.7,71.69a.6.6,0,1,1,1.11.46L7.52,75.27l1.29,3.12a.6.6,0,0,1-.32.79A.66.66,0,0,1,8.26,79.22Z"/><path class="cls-2" d="M13.79,59.18a.69.69,0,0,1-.24,0,.61.61,0,0,1-.32-.79l1.5-3.64a.61.61,0,1,1,1.12.46L14.34,58.8A.59.59,0,0,1,13.79,59.18Zm4.52-10.92a.59.59,0,0,1-.23,0,.6.6,0,0,1-.33-.79l5.53-13.35a.6.6,0,0,1,.79-.32.61.61,0,0,1,.33.79L18.87,47.88A.62.62,0,0,1,18.31,48.26Z"/><path class="cls-2" d="M25.35,31.27a.69.69,0,0,1-.24-.05.61.61,0,0,1-.32-.79l1.51-3.64a.56.56,0,0,1,.32-.32L30.26,25a.6.6,0,1,1,.46,1.11l-3.4,1.42L25.9,30.9A.59.59,0,0,1,25.35,31.27ZM43.84,20.59a.6.6,0,0,1-.23-1.16l3.64-1.51A.61.61,0,0,1,47.71,19l-3.64,1.51A.59.59,0,0,1,43.84,20.59Zm10.92-4.52a.6.6,0,0,1-.23-1.16L67.88,9.38a.6.6,0,1,1,.46,1.11L55,16A.59.59,0,0,1,54.76,16.07Z"/><path class="cls-2" d="M78.45,9a.59.59,0,0,1-.23,0L75.1,7.69,72,9a.61.61,0,0,1-.46-1.12l3.35-1.39a.61.61,0,0,1,.46,0l3.35,1.39A.6.6,0,0,1,78.45,9Z"/><path class="cls-2" d="M116.06,24.61a.66.66,0,0,1-.23,0L102.49,19a.61.61,0,1,1,.46-1.12l13.35,5.53a.61.61,0,0,1,.32.79A.6.6,0,0,1,116.06,24.61ZM95.44,16.07a.59.59,0,0,1-.23-.05l-3.64-1.5A.61.61,0,0,1,92,13.4l3.64,1.51a.61.61,0,0,1,.33.79A.62.62,0,0,1,95.44,16.07Z"/><path class="cls-2" d="M140.43,68.88a.59.59,0,0,1-.55-.37l-5.53-13.35a.61.61,0,0,1,.32-.79.6.6,0,0,1,.79.33L141,68.05a.6.6,0,0,1-.33.79A.59.59,0,0,1,140.43,68.88Zm-8.54-20.62a.62.62,0,0,1-.56-.38l-1.51-3.64a.61.61,0,0,1,.33-.79.6.6,0,0,1,.79.33l1.51,3.64a.6.6,0,0,1-.33.79A.59.59,0,0,1,131.89,48.26Zm-7-17a.62.62,0,0,1-.56-.37l-1.41-3.41-3.41-1.42a.6.6,0,1,1,.47-1.11l3.64,1.51a.59.59,0,0,1,.32.32l1.51,3.64a.6.6,0,0,1-.33.79A.59.59,0,0,1,124.85,31.27Z"/></g></svg>