<svg id="Layer_1" data-name="Layer 1" xmlns="http://www.w3.org/2000/svg" viewBox="0 0 150 150"><defs><style>.cls-1{opacity:0.3;}.cls-2{fill:#fff;}</style></defs><title>rectangle</title><g class="cls-1"><path class="cls-2" d="M142.4,120.92H8.36V29.47h134Zm-130.08-4H138.45V33.47H12.32Z"/><path class="cls-2" d="M148.51,127.6h-3a.51.51,0,0,1,0-1H148v-2.5a.5.5,0,1,1,1,0v3A.5.5,0,0,1,148.51,127.6Z"/><path class="cls-2" d="M136.21,127.6h-2.54a.51.51,0,0,1,0-1h2.54a.51.51,0,0,1,0,1Zm-7.63,0h-9.32a.51.51,0,0,1,0-1h9.32a.51.51,0,0,1,0,1Z"/><path class="cls-2" d="M73,127.6H68a.51.51,0,0,1,0-1H73a.51.51,0,0,1,0,1Zm-14.41,0H56.09a.51.51,0,0,1,0-1h2.54a.51.51,0,0,1,0,1Zm-7.63,0H41.68a.51.51,0,0,1,0-1H51a.51.51,0,0,1,0,1Zm-11.87,0H34.05a.51.51,0,0,1,0-1h5.08a.51.51,0,0,1,0,1Zm-14.41,0H22.18a.51.51,0,0,1,0-1h2.54a.51.51,0,0,1,0,1Zm-7.63,0H7.77a.51.51,0,0,1,0-1h9.32a.51.51,0,0,1,0,1Z"/><path class="cls-2" d="M128.58,124.53h-5.09a.5.5,0,0,1,0-1h5.09a.5.5,0,0,1,0,1Zm-33.91,0H89.59a.5.5,0,0,1,0-1h5.08a.5.5,0,0,1,0,1Zm-14.41,0H77.72a.5.5,0,0,1,0-1h2.54a.5.5,0,1,1,0,1Zm-7.63,0H63.31a.5.5,0,0,1,0-1h9.32a.5.5,0,0,1,0,1Z"/><path class="cls-2" d="M5.23,127.6h-3a.5.5,0,0,1-.5-.5v-3a.5.5,0,1,1,1,0v2.5H5.23a.51.51,0,0,1,0,1Z"/><path class="cls-2" d="M2.26,115.16a.5.5,0,0,1-.5-.5v-2.58a.5.5,0,1,1,1,0v2.58A.5.5,0,0,1,2.26,115.16Zm0-7.73a.5.5,0,0,1-.5-.5V97.5a.5.5,0,1,1,1,0v9.43A.49.49,0,0,1,2.26,107.43Z"/><path class="cls-2" d="M2.26,95.43a.5.5,0,0,1-.5-.5V89.78a.5.5,0,1,1,1,0v5.15A.5.5,0,0,1,2.26,95.43Zm0-14.59a.5.5,0,0,1-.5-.5V77.77a.5.5,0,1,1,1,0v2.57A.49.49,0,0,1,2.26,80.84Zm0-7.72a.5.5,0,0,1-.5-.5V63.18a.5.5,0,1,1,1,0v9.44A.49.49,0,0,1,2.26,73.12Zm0-12a.5.5,0,0,1-.5-.5V55.46a.5.5,0,1,1,1,0v5.15A.49.49,0,0,1,2.26,61.11Zm0-14.58a.5.5,0,0,1-.5-.5V43.45a.5.5,0,1,1,1,0V46A.5.5,0,0,1,2.26,46.53Zm0-7.72a.5.5,0,0,1-.5-.5V28.87a.5.5,0,1,1,1,0v9.44A.5.5,0,0,1,2.26,38.81Z"/><path class="cls-2" d="M2.26,26.8a.5.5,0,0,1-.5-.5v-3a.5.5,0,0,1,.5-.5h3a.5.5,0,0,1,.49.5.49.49,0,0,1-.49.5H2.75V26.3A.5.5,0,0,1,2.26,26.8Z"/><path class="cls-2" d="M31.5,23.79H22.18a.49.49,0,0,1-.49-.5.5.5,0,0,1,.49-.5H31.5a.5.5,0,0,1,.5.5A.5.5,0,0,1,31.5,23.79Zm-14.41,0H14.55a.49.49,0,0,1-.49-.5.5.5,0,0,1,.49-.5h2.54a.5.5,0,0,1,.5.5A.5.5,0,0,1,17.09,23.79Z"/><path class="cls-2" d="M143,23.79h-9.32a.5.5,0,0,1-.5-.5.51.51,0,0,1,.5-.5H143a.5.5,0,0,1,.5.5A.5.5,0,0,1,143,23.79Zm-14.41,0H126a.5.5,0,0,1-.5-.5.51.51,0,0,1,.5-.5h2.54a.5.5,0,0,1,.5.5A.5.5,0,0,1,128.58,23.79Zm-11.87,0h-5.08a.5.5,0,0,1-.5-.5.5.5,0,0,1,.5-.5h5.08a.5.5,0,0,1,.5.5A.5.5,0,0,1,116.71,23.79Zm-7.62,0H99.76a.49.49,0,0,1-.49-.5.5.5,0,0,1,.49-.5h9.33a.5.5,0,0,1,.49.5A.49.49,0,0,1,109.09,23.79Zm-14.42,0H92.13a.49.49,0,0,1-.49-.5.5.5,0,0,1,.49-.5h2.54a.5.5,0,0,1,.5.5A.5.5,0,0,1,94.67,23.79Zm-11.86,0H77.72a.49.49,0,0,1-.49-.5.5.5,0,0,1,.49-.5h5.09a.5.5,0,0,1,.49.5A.49.49,0,0,1,82.81,23.79Z"/><path class="cls-2" d="M93.72,26.86H88.63a.5.5,0,0,1,0-1h5.09a.5.5,0,0,1,0,1Zm-10.36,0H74a.5.5,0,0,1,0-1h9.32a.5.5,0,0,1,0,1ZM69,26.86H66.41a.5.5,0,0,1,0-1H69a.5.5,0,0,1,0,1Zm-11.87,0H52a.5.5,0,0,1,0-1h5.08a.5.5,0,0,1,0,1Z"/><path class="cls-2" d="M148.51,26.8a.5.5,0,0,1-.5-.5V23.79h-2.47a.5.5,0,0,1-.5-.5.5.5,0,0,1,.5-.5h3a.5.5,0,0,1,.49.5v3A.5.5,0,0,1,148.51,26.8Z"/><path class="cls-2" d="M148.51,53.39a.5.5,0,0,1-.5-.5V43.45a.5.5,0,1,1,1,0v9.44A.49.49,0,0,1,148.51,53.39Zm0-14.58a.5.5,0,0,1-.5-.5V35.73a.5.5,0,1,1,1,0v2.58A.5.5,0,0,1,148.51,38.81Z"/><path class="cls-2" d="M148.51,122a.5.5,0,0,1-.5-.5v-9.44a.5.5,0,1,1,1,0v9.44A.49.49,0,0,1,148.51,122Zm0-14.58a.5.5,0,0,1-.5-.5v-2.58a.5.5,0,1,1,1,0v2.58A.5.5,0,0,1,148.51,107.44Zm0-12a.5.5,0,0,1-.5-.5V89.78a.5.5,0,1,1,1,0v5.15A.5.5,0,0,1,148.51,95.43Zm0-7.72a.5.5,0,0,1-.5-.5V77.77a.5.5,0,1,1,1,0v9.44A.5.5,0,0,1,148.51,87.71Zm0-14.59a.5.5,0,0,1-.5-.5V70.05a.5.5,0,1,1,1,0v2.57A.49.49,0,0,1,148.51,73.12Zm0-12a.5.5,0,0,1-.5-.5V55.46a.5.5,0,1,1,1,0v5.15A.49.49,0,0,1,148.51,61.11Z"/><path class="cls-2" d="M145.48,124.53h-3a.5.5,0,0,1,0-1H145V121a.5.5,0,1,1,1,0v3A.49.49,0,0,1,145.48,124.53Z"/><path class="cls-2" d="M129,124.53h-3.67a.5.5,0,0,1,0-1H129a.5.5,0,0,1,0,1Zm-11,0H104.56a.5.5,0,0,1,0-1H118a.5.5,0,1,1,0,1Z"/><path class="cls-2" d="M57.22,124.53H49.87a.5.5,0,0,1,0-1h7.35a.5.5,0,0,1,0,1Zm-20.81,0H32.74a.5.5,0,0,1,0-1h3.67a.5.5,0,0,1,0,1Zm-11,0H11.93a.5.5,0,0,1,0-1H25.39a.5.5,0,1,1,0,1Z"/><path class="cls-2" d="M107.77,127.6H104.1a.51.51,0,0,1,0-1h3.67a.51.51,0,0,1,0,1Zm-11,0H83.29a.51.51,0,0,1,0-1H96.76a.51.51,0,0,1,0,1Z"/><path class="cls-2" d="M8.26,124.53h-3a.5.5,0,0,1-.5-.5v-3a.5.5,0,1,1,1,0v2.5H8.26a.5.5,0,0,1,0,1Z"/><path class="cls-2" d="M5.29,107.9a.5.5,0,0,1-.5-.5v-3.72a.5.5,0,1,1,1,0v3.72A.49.49,0,0,1,5.29,107.9Zm0-11.15a.5.5,0,0,1-.5-.5V82.63a.5.5,0,1,1,1,0V96.25A.49.49,0,0,1,5.29,96.75Z"/><path class="cls-2" d="M5.29,79.41a.5.5,0,0,1-.5-.5V71.48a.5.5,0,1,1,1,0v7.43A.49.49,0,0,1,5.29,79.41Zm0-21.06a.5.5,0,0,1-.5-.5V54.14a.5.5,0,1,1,1,0v3.71A.49.49,0,0,1,5.29,58.35Zm0-11.14a.5.5,0,0,1-.5-.5V33.08a.5.5,0,1,1,1,0V46.71A.5.5,0,0,1,5.29,47.21Z"/><path class="cls-2" d="M5.29,29.86a.5.5,0,0,1-.5-.5v-3a.5.5,0,0,1,.5-.5h3a.5.5,0,0,1,0,1H5.78v2.5A.49.49,0,0,1,5.29,29.86Z"/><path class="cls-2" d="M46.2,26.86H32.74a.5.5,0,0,1,0-1H46.2a.5.5,0,0,1,0,1Zm-20.81,0H21.72a.5.5,0,0,1,0-1h3.67a.5.5,0,0,1,0,1Z"/><path class="cls-2" d="M138.83,26.86H125.37a.5.5,0,0,1,0-1h13.46a.5.5,0,0,1,0,1Zm-20.8,0h-3.68a.5.5,0,0,1,0-1H118a.5.5,0,0,1,0,1Zm-13,0H97.64a.5.5,0,0,1,0-1H105a.5.5,0,0,1,0,1Z"/><path class="cls-2" d="M67.47,23.79H54a.49.49,0,0,1-.49-.5.5.5,0,0,1,.49-.5H67.47a.5.5,0,0,1,.49.5A.49.49,0,0,1,67.47,23.79Zm-20.81,0H43a.5.5,0,0,1-.5-.5.51.51,0,0,1,.5-.5h3.67a.51.51,0,0,1,.5.5A.5.5,0,0,1,46.66,23.79Z"/><path class="cls-2" d="M145.48,29.86a.5.5,0,0,1-.5-.5v-2.5h-2.47a.5.5,0,0,1,0-1h3a.49.49,0,0,1,.49.5v3A.49.49,0,0,1,145.48,29.86Z"/><path class="cls-2" d="M145.48,68.26a.5.5,0,0,1-.5-.5V54.14a.5.5,0,1,1,1,0V67.76A.49.49,0,0,1,145.48,68.26Zm0-21.05a.5.5,0,0,1-.5-.51V43a.5.5,0,1,1,1,0V46.7A.5.5,0,0,1,145.48,47.21Z"/><path class="cls-2" d="M145.48,117.81a.5.5,0,0,1-.5-.5V103.68a.5.5,0,1,1,1,0v13.63A.49.49,0,0,1,145.48,117.81Zm0-21.06a.5.5,0,0,1-.5-.5V92.54a.5.5,0,1,1,1,0v3.71A.49.49,0,0,1,145.48,96.75Zm0-17.34a.5.5,0,0,1-.5-.5V71.48a.5.5,0,1,1,1,0v7.43A.49.49,0,0,1,145.48,79.41Z"/></g></svg>