<svg id="Layer_1" data-name="Layer 1" xmlns="http://www.w3.org/2000/svg" viewBox="0 0 150 150"><defs><style>.cls-1{opacity:0.3;}.cls-2{fill:#fff;}</style></defs><title>square</title><g class="cls-1"><path class="cls-2" d="M139.05,138.79H12.27V12H139.05ZM17.82,133.23H133.5V17.56H17.82Z"/><path class="cls-2" d="M147.61,148h-4.16a.7.7,0,1,1,0-1.39h3.47v-3.47a.69.69,0,0,1,.69-.69.7.7,0,0,1,.7.69v4.16A.7.7,0,0,1,147.61,148Z"/><path class="cls-2" d="M130.36,148H126.8a.7.7,0,1,1,0-1.39h3.56a.7.7,0,1,1,0,1.39Zm-10.7,0H106.58a.7.7,0,0,1,0-1.39h13.08a.7.7,0,0,1,0,1.39Z"/><path class="cls-2" d="M103,148H95.88a.7.7,0,1,1,0-1.39H103a.7.7,0,1,1,0,1.39ZM82.8,148H79.23a.7.7,0,1,1,0-1.39H82.8a.7.7,0,0,1,0,1.39Zm-10.71,0H59a.7.7,0,0,1,0-1.39H72.09a.7.7,0,1,1,0,1.39Zm-16.65,0H48.31a.7.7,0,1,1,0-1.39h7.13a.7.7,0,1,1,0,1.39Zm-20.21,0H31.66a.7.7,0,0,1,0-1.39h3.57a.7.7,0,0,1,0,1.39Zm-10.71,0H11.44a.7.7,0,0,1,0-1.39H24.52a.7.7,0,1,1,0,1.39Z"/><path class="cls-2" d="M7.88,148H3.71a.69.69,0,0,1-.69-.7v-4.16a.69.69,0,0,1,1.38,0v3.47H7.88a.7.7,0,0,1,0,1.39Z"/><path class="cls-2" d="M3.71,130.79A.69.69,0,0,1,3,130.1v-3.57a.69.69,0,0,1,1.38,0v3.57A.69.69,0,0,1,3.71,130.79Zm0-10.7A.69.69,0,0,1,3,119.4V106.31a.69.69,0,0,1,1.38,0V119.4A.69.69,0,0,1,3.71,120.09Z"/><path class="cls-2" d="M3.71,103.44a.69.69,0,0,1-.69-.69V95.61a.69.69,0,0,1,1.38,0v7.14A.69.69,0,0,1,3.71,103.44Zm0-20.21a.7.7,0,0,1-.69-.7V79A.69.69,0,0,1,4.4,79v3.57A.7.7,0,0,1,3.71,83.23Zm0-10.71A.69.69,0,0,1,3,71.83V58.75a.69.69,0,1,1,1.38,0V71.83A.69.69,0,0,1,3.71,72.52Zm0-16.65A.69.69,0,0,1,3,55.18V48A.69.69,0,1,1,4.4,48v7.14A.69.69,0,0,1,3.71,55.87Zm0-20.21A.69.69,0,0,1,3,35V31.4a.69.69,0,1,1,1.38,0V35A.69.69,0,0,1,3.71,35.66ZM3.71,25A.69.69,0,0,1,3,24.26V11.18a.69.69,0,1,1,1.38,0V24.26A.69.69,0,0,1,3.71,25Z"/><path class="cls-2" d="M3.71,8.3A.69.69,0,0,1,3,7.61V3.45a.69.69,0,0,1,.69-.7H7.88a.7.7,0,0,1,0,1.39H4.4V7.61A.69.69,0,0,1,3.71,8.3Z"/><path class="cls-2" d="M44.74,4.14H31.66a.7.7,0,0,1,0-1.39H44.74a.7.7,0,1,1,0,1.39Zm-20.22,0H21a.7.7,0,1,1,0-1.39h3.56a.7.7,0,1,1,0,1.39Z"/><path class="cls-2" d="M139.88,4.14H126.8a.7.7,0,1,1,0-1.39h13.08a.7.7,0,0,1,0,1.39Zm-20.22,0h-3.57a.7.7,0,0,1,0-1.39h3.57a.7.7,0,1,1,0,1.39ZM103,4.14H95.88a.7.7,0,1,1,0-1.39H103a.7.7,0,1,1,0,1.39Zm-10.7,0H79.23a.7.7,0,1,1,0-1.39H92.31a.7.7,0,0,1,0,1.39Zm-20.22,0H68.53a.7.7,0,1,1,0-1.39h3.56a.7.7,0,1,1,0,1.39Zm-16.65,0H48.31a.7.7,0,1,1,0-1.39h7.13a.7.7,0,1,1,0,1.39Z"/><path class="cls-2" d="M147.61,8.3a.69.69,0,0,1-.69-.69V4.14h-3.47a.7.7,0,1,1,0-1.39h4.16a.7.7,0,0,1,.7.7V7.61A.7.7,0,0,1,147.61,8.3Z"/><path class="cls-2" d="M147.61,45.17a.69.69,0,0,1-.69-.69V31.4a.69.69,0,0,1,.69-.7.7.7,0,0,1,.7.7V44.48A.7.7,0,0,1,147.61,45.17Zm0-20.22a.69.69,0,0,1-.69-.69V20.69a.69.69,0,0,1,.69-.69.7.7,0,0,1,.7.69v3.57A.7.7,0,0,1,147.61,25Z"/><path class="cls-2" d="M147.61,140.31a.69.69,0,0,1-.69-.7V126.53a.69.69,0,0,1,.69-.69.7.7,0,0,1,.7.69v13.08A.7.7,0,0,1,147.61,140.31Zm0-20.22a.69.69,0,0,1-.69-.69v-3.57a.69.69,0,0,1,.69-.69.7.7,0,0,1,.7.69v3.57A.7.7,0,0,1,147.61,120.09Zm0-16.65a.69.69,0,0,1-.69-.69V95.61a.69.69,0,0,1,.69-.69.7.7,0,0,1,.7.69v7.14A.7.7,0,0,1,147.61,103.44Zm0-10.7a.69.69,0,0,1-.69-.69V79a.69.69,0,0,1,.69-.69.7.7,0,0,1,.7.69V92.05A.7.7,0,0,1,147.61,92.74Zm0-20.22a.69.69,0,0,1-.69-.69V68.26a.69.69,0,0,1,.69-.69.7.7,0,0,1,.7.69v3.57A.7.7,0,0,1,147.61,72.52Zm0-16.65a.69.69,0,0,1-.69-.69V48a.69.69,0,0,1,.69-.69.7.7,0,0,1,.7.69v7.14A.7.7,0,0,1,147.61,55.87Z"/><path class="cls-2" d="M143.36,143.79H139.2a.7.7,0,1,1,0-1.39h3.47v-3.47a.69.69,0,0,1,1.38,0v4.16A.69.69,0,0,1,143.36,143.79Z"/><path class="cls-2" d="M120.31,143.79h-5.16a.7.7,0,0,1,0-1.39h5.16a.7.7,0,0,1,0,1.39Zm-15.46,0H86a.7.7,0,0,1,0-1.39h18.89a.7.7,0,1,1,0,1.39Z"/><path class="cls-2" d="M80.81,143.79H70.51a.7.7,0,0,1,0-1.39h10.3a.7.7,0,1,1,0,1.39Zm-29.19,0H46.47a.7.7,0,0,1,0-1.39h5.15a.7.7,0,0,1,0,1.39Zm-15.45,0H17.28a.7.7,0,1,1,0-1.39H36.17a.7.7,0,0,1,0,1.39Z"/><path class="cls-2" d="M12.13,143.79H8a.69.69,0,0,1-.69-.7v-4.16a.7.7,0,0,1,1.39,0v3.47h3.47a.7.7,0,0,1,0,1.39Z"/><path class="cls-2" d="M8,120.74a.7.7,0,0,1-.69-.7v-5.15a.7.7,0,0,1,1.39,0V120A.7.7,0,0,1,8,120.74Zm0-15.46a.69.69,0,0,1-.69-.69V85.7a.7.7,0,1,1,1.39,0v18.89A.69.69,0,0,1,8,105.28Z"/><path class="cls-2" d="M8,81.24a.69.69,0,0,1-.69-.69V70.25a.7.7,0,1,1,1.39,0v10.3A.69.69,0,0,1,8,81.24ZM8,52.05a.69.69,0,0,1-.69-.69V46.2a.7.7,0,0,1,1.39,0v5.16A.69.69,0,0,1,8,52.05ZM8,36.6a.69.69,0,0,1-.69-.7V17a.7.7,0,0,1,1.39,0V35.9A.7.7,0,0,1,8,36.6Z"/><path class="cls-2" d="M8,12.56a.7.7,0,0,1-.69-.7V7.7A.69.69,0,0,1,8,7h4.17a.7.7,0,0,1,0,1.39H8.66v3.47A.7.7,0,0,1,8,12.56Z"/><path class="cls-2" d="M65.36,8.39H46.47a.7.7,0,0,1,0-1.39H65.36a.7.7,0,0,1,0,1.39Zm-29.19,0H31A.7.7,0,0,1,31,7h5.16a.7.7,0,0,1,0,1.39Z"/><path class="cls-2" d="M134,8.39H115.16a.7.7,0,1,1,0-1.39H134a.7.7,0,1,1,0,1.39Zm-29.19,0H99.7A.7.7,0,0,1,99.7,7h5.15a.7.7,0,1,1,0,1.39Zm-24,0H70.51a.7.7,0,0,1,0-1.39h10.3a.7.7,0,1,1,0,1.39Z"/><path class="cls-2" d="M143.36,12.56a.7.7,0,0,1-.69-.7V8.39H139.2a.7.7,0,1,1,0-1.39h4.16a.69.69,0,0,1,.69.7v4.16A.7.7,0,0,1,143.36,12.56Z"/><path class="cls-2" d="M143.36,65.79a.69.69,0,0,1-.69-.7V46.2a.69.69,0,1,1,1.38,0V65.09A.69.69,0,0,1,143.36,65.79Zm0-29.19a.7.7,0,0,1-.69-.7V30.75a.69.69,0,0,1,1.38,0V35.9A.7.7,0,0,1,143.36,36.6Z"/><path class="cls-2" d="M143.36,134.47a.69.69,0,0,1-.69-.69V114.89a.69.69,0,0,1,1.38,0v18.89A.69.69,0,0,1,143.36,134.47Zm0-29.19a.69.69,0,0,1-.69-.69V99.44a.69.69,0,1,1,1.38,0v5.15A.69.69,0,0,1,143.36,105.28Zm0-24a.69.69,0,0,1-.69-.69V70.24a.69.69,0,0,1,1.38,0V80.55A.69.69,0,0,1,143.36,81.24Z"/></g></svg>